<svg xmlns="http://www.w3.org/2000/svg" viewBox="0 0 680.99 150.07"><defs><style>.cls-1{fill:#caeb47;}.cls-2{fill:#fff;}</style></defs><g id="Layer_2" data-name="Layer 2"><g id="Шар_1" data-name="Шар 1"><path class="cls-1" d="M128,22.09,75,0,22.09,22.09,0,75l21.9,53L75,150.07l53-21.9L150.07,75Zm17.76,50.09-23.8-6.48-.06-.08a10.83,10.83,0,0,0-5.08-10.2l10.66-28ZM67,94.75a13.52,13.52,0,0,0-6.67-10.09l9.52-23a16.1,16.1,0,0,0,5.14.76,15.38,15.38,0,0,0,5.15-.76L92,90.18a7.59,7.59,0,0,0-3,4.57Zm29.32-6a3.71,3.71,0,0,0-1.33.19L83.22,60.37a16.49,16.49,0,0,0,5.91-5.52l11.81,6.47a10.6,10.6,0,0,0-.58,3.43,10.9,10.9,0,0,0,4.57,8.76l-7,15.43A4.21,4.21,0,0,0,96.36,88.75Zm-43.23-6.1a11.16,11.16,0,0,0-4.38.76L38.08,61.32a7.37,7.37,0,0,0,2.86-5.9v-.19l17.71-4.38a16.1,16.1,0,0,0,8,9.33L57.13,83A28.63,28.63,0,0,0,53.13,82.65Zm57.71-28.37a10.09,10.09,0,0,0-8.19,4L90.84,51.8a16.05,16.05,0,0,0,1.33-6.66,16.6,16.6,0,0,0-1-5.34L123.6,26.28,113.12,54.47A9.25,9.25,0,0,0,110.84,54.28ZM58.09,47.56,40.37,51.94A7.7,7.7,0,0,0,33,47.77l0,0L26.09,26.23,58.66,39.75a16.55,16.55,0,0,0-1,5.33C57.9,46,57.9,46.8,58.09,47.56ZM28.19,60.75A7.63,7.63,0,0,0,33.52,63a5.26,5.26,0,0,0,1.71-.19L45.9,84.94a13.54,13.54,0,0,0-4.57,4.76L5.71,75Zm72.75,29.52,7.23-15.43a14.79,14.79,0,0,0,2.86.39,10.33,10.33,0,0,0,9.52-6.1l23,6.1L102.65,92.17A8.17,8.17,0,0,0,100.94,90.27ZM90.08,36.76a17.12,17.12,0,0,0-13.14-8.57V4.38l45.71,18.85ZM72.94,4.38V28.19A16.79,16.79,0,0,0,59.8,36.76L27.23,23.23ZM23.23,27.8l6.67,21a7.61,7.61,0,0,0-3.81,6.48,6.79,6.79,0,0,0,.57,2.67L5.33,71.42ZM5,78.08,40.18,92.75a11.06,11.06,0,0,0-.57,3.61,13.85,13.85,0,0,0,3,8.57L23.81,124Zm21.33,48.18,18.86-19a13.9,13.9,0,0,0,8.37,2.86,12.27,12.27,0,0,0,3.81-.57L72,145.12ZM60.37,108A13.37,13.37,0,0,0,67,97.75h21.9a6.69,6.69,0,0,0,3.23,4.57L75,143.65Zm34.85-4.24c.38,0,.76.19,1.14.19a7,7,0,0,0,4-1.14l23.43,23.42L78.08,145.12Zm31,20-23.61-23.43a7,7,0,0,0,1.14-4,2.41,2.41,0,0,0-.19-1.14l41.33-17.14Z"/><path class="cls-2" d="M238.86,79.09H196.29c1.19,9.21,8.61,15.35,19,15.35,6.14,0,11.28-2.08,15.14-6.34l5.25,6.14c-4.75,5.54-12,8.51-20.69,8.51-16.93,0-28.21-11.18-28.21-26.82S198,49.2,213.12,49.2s25.94,10.89,25.94,27C239.06,77,239,78.2,238.86,79.09Zm-42.57-6.83H230c-1-8.81-7.62-15-16.83-15S197.28,63.35,196.29,72.26Z"/><path class="cls-2" d="M284.2,102.16l-15.14-20.1-15.35,20.1H243.12l20.69-26.83-19.7-25.64H254.7L269.15,68.6l14.36-18.91H293.9L274.1,75.33,295,102.16Z"/><path class="cls-2" d="M359.74,75.93c0,16.13-11.19,26.82-26.53,26.82-7.43,0-14-2.87-18.32-8.51v27.13h-9.5V49.69h9.1V58c4.26-5.84,11-8.81,18.72-8.81C348.55,49.2,359.74,59.89,359.74,75.93Zm-9.61,0c0-11.09-7.62-18.42-17.72-18.42s-17.62,7.33-17.62,18.42,7.62,18.51,17.62,18.51S350.13,87.11,350.13,75.93Z"/><path class="cls-2" d="M372.9,28.7h9.51v73.46H372.9Z"/><path class="cls-2" d="M447.75,79.09H405.18c1.19,9.21,8.61,15.35,19,15.35,6.13,0,11.28-2.08,15.14-6.34l5.25,6.14c-4.75,5.54-12,8.51-20.69,8.51-16.93,0-28.22-11.18-28.22-26.82S406.86,49.2,422,49.2,448,60.09,448,76.22C448,77,447.85,78.2,447.75,79.09Zm-42.57-6.83h33.66c-1-8.81-7.63-15-16.83-15S406.17,63.35,405.18,72.26Z"/><path class="cls-2" d="M495.17,100c-3.27,2.08-8.12,3.07-13.07,3.07-13.76,0-21.78-6.73-21.78-20.49v-18H452.5V50.48h7.82v-14h18.81v14h12.28V64.54H479.13V82.36c0,4,2.28,6.14,5.64,6.14a10.35,10.35,0,0,0,5.74-1.68Z"/><path class="cls-2" d="M555.36,80.08h-39c1.59,5.45,6.24,8.62,13.17,8.62A17.21,17.21,0,0,0,541.9,84l9.9,10.3c-5.15,5.74-12.68,8.71-22.87,8.71-19.11,0-31.48-11.78-31.48-27.82S510,47.61,527,47.61c15.84,0,28.71,10.1,28.71,27.82C555.66,76.82,555.46,78.6,555.36,80.08Zm-39.3-9.9h22a10.61,10.61,0,0,0-11-9.2C521.21,61,517.15,64.54,516.06,70.18Z"/><path class="cls-2" d="M561,75.23c0-16.13,12.77-27.62,30.79-27.62,12.18,0,21.48,5.45,25.15,14.75l-14.56,7.43c-2.57-5.05-6.33-7.23-10.69-7.23-6.53,0-11.68,4.55-11.68,12.67,0,8.32,5.15,12.87,11.68,12.87,4.36,0,8.12-2.18,10.69-7.22l14.56,7.42c-3.67,9.31-13,14.75-25.15,14.75C573.77,103.05,561,91.57,561,75.23Z"/><path class="cls-2" d="M681,71.47v30.69H662.18V74.54c0-7.72-3.37-11-8.81-11-6,0-10.69,3.76-10.69,12.67v25.94H623.87V28.7h18.81V53.45c4.16-3.86,9.8-5.84,16.13-5.84C671.39,47.61,681,54.84,681,71.47Z"/></g></g></svg>